<svg fill="none" height="512" viewBox="0 0 24 24" width="512" xmlns="http://www.w3.org/2000/svg"><g clip-rule="evenodd" fill="#2e2e2e" fill-rule="evenodd"><path d="m15.663 3.77329c-1.7728-.78989-3.7534-.98558-5.6464-.55787-1.89309.42772-3.59718 1.45591-4.85815 2.93124-1.26096 1.47533-2.01124 3.31874-2.13894 5.25534s.37403 3.8625 1.43036 5.4907c1.05632 1.6281 2.61064 2.8711 4.43115 3.5437 1.82048.6726 3.80968.7387 5.67078.1884 1.8612-.5503 3.4946-1.6874 4.6566-3.2419 1.1621-1.5544 1.7905-3.4428 1.7916-5.3836v-.9194c0-.5523.4477-1 1-1s1 .4477 1 1v.92c-.0014 2.372-.7694 4.6807-2.1897 6.5805-1.4203 1.8999-3.4167 3.2898-5.6914 3.9623-2.2747.6726-4.7059.5918-6.93098-.2302-2.22507-.8221-4.1248-2.3414-5.41586-4.3313-1.29107-1.9899-1.90429-4.3439-1.74822-6.7108.15608-2.36694 1.07309-4.62 2.61427-6.42318s3.62395-3.05986 5.9377-3.58262c2.31379-.522763 4.73449-.283593 6.90119.68184.5045.22478.7312.81595.5064 1.32043-.2247.50447-.8159.7312-1.3204.50642z"/><path d="m22.7068 3.29254c.3907.39033.391 1.02349.0007 1.41421l-10 10.01005c-.1875.1876-.4419.2931-.7073.2932-.2653.0001-.5197-.1053-.7073-.2929l-3.00001-3c-.39052-.3905-.39052-1.0237 0-1.4142.39053-.39053 1.02369-.39053 1.41422 0l2.29249 2.2925 9.2929-9.30215c.3904-.39072 1.0235-.39104 1.4143-.00071z"/></g></svg>